<?xml version="1.0" encoding="UTF-8" standalone="no"?>
<svg
   xmlns:dc="http://purl.org/dc/elements/1.1/"
   xmlns:cc="http://creativecommons.org/ns#"
   xmlns:rdf="http://www.w3.org/1999/02/22-rdf-syntax-ns#"
   xmlns:svg="http://www.w3.org/2000/svg"
   xmlns="http://www.w3.org/2000/svg"
   xmlns:sodipodi="http://sodipodi.sourceforge.net/DTD/sodipodi-0.dtd"
   xmlns:inkscape="http://www.inkscape.org/namespaces/inkscape"
   version="1.1"
   id="Capa_1"
   x="0px"
   y="0px"
   viewBox="0 0 58.035 58.035"
   style="enable-background:new 0 0 58.035 58.035;"
   xml:space="preserve"
   sodipodi:docname="logo.svg"
   inkscape:version="1.0.1 (3bc2e813f5, 2020-09-07)"><metadata
   id="metadata102"><rdf:RDF><cc:Work
       rdf:about=""><dc:format>image/svg+xml</dc:format><dc:type
         rdf:resource="http://purl.org/dc/dcmitype/StillImage" /></cc:Work></rdf:RDF></metadata><defs
   id="defs100">
	
</defs><sodipodi:namedview
   pagecolor="#ffffff"
   bordercolor="#666666"
   borderopacity="1"
   objecttolerance="10"
   gridtolerance="10"
   guidetolerance="10"
   inkscape:pageopacity="0"
   inkscape:pageshadow="2"
   inkscape:window-width="1920"
   inkscape:window-height="1017"
   id="namedview98"
   showgrid="false"
   inkscape:zoom="10.356522"
   inkscape:cx="13.628636"
   inkscape:cy="35.459939"
   inkscape:window-x="1672"
   inkscape:window-y="-8"
   inkscape:window-maximized="1"
   inkscape:current-layer="Capa_1"
   inkscape:document-rotation="0" />
<g
   id="g63"
   inkscape:label="g63"
   style="display:inline"><text
   xml:space="preserve"
   style="font-style:normal;font-weight:normal;font-size:12.6459px;line-height:1.25;font-family:sans-serif;display:inline;fill:#000000;fill-opacity:1;stroke:none;stroke-width:0.316151"
   x="14.942995"
   y="34.131931"
   id="text106"
   transform="scale(1.1158654,0.89616543)"><tspan
     sodipodi:role="line"
     id="tspan104"
     x="14.942995"
     y="34.131931"
     style="stroke-width:0.316151">z</tspan><tspan
     sodipodi:role="line"
     x="14.942995"
     y="49.939304"
     id="tspan108"
     style="stroke-width:0.316151" /></text><text
   xml:space="preserve"
   style="font-style:normal;font-weight:normal;font-size:10.4746px;line-height:1.25;font-family:sans-serif;display:inline;fill:#000000;fill-opacity:1;stroke:none;stroke-width:0.261863"
   x="29.812656"
   y="34.127174"
   id="text112"
   transform="scale(1.1026029,0.90694483)"><tspan
     sodipodi:role="line"
     id="tspan110"
     x="29.812656"
     y="34.127174"
     style="stroke-width:0.261863">G</tspan></text>
		<path
   d="m 35,36.518 c 0,2.206 -1.794,4 -4,4 h -1 v 2 h 1 c 3.309,0 6,-2.691 6,-6 v -1 h -2 z"
   id="path57"
   style="display:inline" />
		<path
   d="m 53,45.518 v -16.5 c 0,-10.201 -8.302,-18.5 -18.506,-18.5 H 23.506 C 13.302,10.518 5,18.816 5,29.018 v 16.5 H 0 v 2 h 6 46 6.035 v -2 z m -46,0 v -16.5 c 0,-9.098 7.404,-16.5 16.506,-16.5 h 10.988 c 9.101,0 16.506,7.402 16.506,16.5 v 16.5 z"
   id="path59"
   style="display:inline" />
		<path
   d="M 44,21.518 H 31 c -0.553,0 -1,0.448 -1,1 h -2 c 0,-0.552 -0.447,-1 -1,-1 H 14 c -0.553,0 -1,0.448 -1,1 v 5 c 0,3.309 2.695,6 6.008,6 h 2.984 c 3.313,0 6.008,-2.691 6.008,-6 v -3 h 2 v 3 c 0,3.309 2.695,6 6.008,6 h 2.984 c 3.312,0 6.008,-2.691 6.008,-6 v -5 c 0,-0.553 -0.447,-1 -1,-1 z m -18,6 c 0,2.206 -1.798,4 -4.008,4 h -2.984 c -2.21,0 -4.008,-1.794 -4.008,-4 v -4 h 11 v 1 z m 17,0 c 0,2.206 -1.798,4 -4.008,4 h -2.984 c -2.21,0 -4.008,-1.794 -4.008,-4 v -4 h 11 z"
   id="path61"
   style="display:inline" />
	</g>















</svg>
