<?xml version="1.0" ?><!DOCTYPE svg  PUBLIC '-//W3C//DTD SVG 1.1//EN'  'http://www.w3.org/Graphics/SVG/1.1/DTD/svg11.dtd'><svg enable-background="new 0 0 32 32" height="32px" version="1.1" viewBox="0 0 32 32" width="32px" xml:space="preserve" xmlns="http://www.w3.org/2000/svg" xmlns:xlink="http://www.w3.org/1999/xlink"><g id="play"/><g id="stop"/><g id="pause"><g><path d="M6,4C5.45,4,5,4.45,5,5v22c0,0.55,0.45,1,1,1h3    c0.55,0,1-0.45,1-1V5c0-0.55-0.45-1-1-1H6z" fill="none" stroke="#231F20" stroke-miterlimit="10" stroke-width="2"/></g><g><path d="M23,4c-0.55,0-1,0.45-1,1v22c0,0.55,0.45,1,1,1h3    c0.55,0,1-0.45,1-1V5c0-0.55-0.45-1-1-1H23z" fill="none" stroke="#231F20" stroke-miterlimit="10" stroke-width="2"/></g></g><g id="replay"/><g id="next"/><g id="Layer_8"/><g id="search"/><g id="list"/><g id="love"/><g id="menu"/><g id="add"/><g id="headset"/><g id="random"/><g id="music"/><g id="setting"/><g id="Layer_17"/><g id="Layer_18"/><g id="Layer_19"/><g id="Layer_20"/><g id="Layer_21"/><g id="Layer_22"/><g id="Layer_23"/><g id="Layer_24"/><g id="Layer_25"/><g id="Layer_26"/></svg>